HIERARCHY
ROOT hip
{
	OFFSET 0.000000 0.000000 0.000000 
	CHANNELS 6 Xposition Yposition Zposition Xrotation Zrotation Yrotation
	JOINT abdomen
	{
		OFFSET 0.000000 3.402643 0.000000 
		CHANNELS 3 Xrotation Zrotation Yrotation
		JOINT chest
		{
			OFFSET 0.000000 8.438565 -0.680529 
			CHANNELS 3 Xrotation Zrotation Yrotation
			JOINT neck
			{
				OFFSET 0.000000 10.207942 -0.272212 
				CHANNELS 3 Xrotation Zrotation Yrotation
				JOINT head
				{
					OFFSET 0.000000 3.130431 0.000000 
					CHANNELS 3 Xrotation Zrotation Yrotation
					End Site
					{
						OFFSET 0.000000 3.130435 0.000000 
					}
				}
			}
			JOINT lCollar
			{
				OFFSET 3.470700 6.669187 -0.816635 
				CHANNELS 3 Yrotation Zrotation Xrotation
				JOINT lShldr
				{
					OFFSET 3.198488 0.000000 0.000000 
					CHANNELS 3 Zrotation Yrotation Xrotation
					JOINT lForeArm
					{
						OFFSET 10.139888 0.000000 0.000000 
						CHANNELS 3 Yrotation Zrotation Xrotation
						JOINT lHand
						{
							OFFSET 8.370511 0.000000 0.000000 
							CHANNELS 3 Zrotation Yrotation Xrotation
							End Site
							{
								OFFSET 4.083176 0.000000 0.000000 
							}
						}
					}
				}
			}
			JOINT rCollar
			{
				OFFSET -3.470700 6.669187 -0.816635 
				CHANNELS 3 Yrotation Zrotation Xrotation
				JOINT rShldr
				{
					OFFSET -3.198488 0.000000 0.000000 
					CHANNELS 3 Zrotation Yrotation Xrotation
					JOINT rForeArm
					{
						OFFSET -10.139888 0.000000 0.000000 
						CHANNELS 3 Yrotation Zrotation Xrotation
						JOINT rHand
						{
							OFFSET -8.370511 0.000000 0.000000 
							CHANNELS 3 Zrotation Yrotation Xrotation
							End Site
							{
								OFFSET -4.083176 0.000000 0.000000 
							}
						}
					}
				}
			}
		}
	}
	JOINT lThigh
	{
		OFFSET 5.308129 -1.633274 1.361059 
		CHANNELS 3 Xrotation Zrotation Yrotation
		JOINT lShin
		{
			OFFSET -2.041588 -20.007561 0.000000 
			CHANNELS 3 Xrotation Zrotation Yrotation
			JOINT lFoot
			{
				OFFSET 0.000000 -19.190928 -1.224953 
				CHANNELS 3 Xrotation Yrotation Zrotation
				End Site
				{
					OFFSET 0.000000 -2.449906 4.627600 
				}
			}
		}
	}
	JOINT rThigh
	{
		OFFSET -5.308129 -1.633274 1.361059 
		CHANNELS 3 Xrotation Zrotation Yrotation
		JOINT rShin
		{
			OFFSET 2.041588 -20.007561 0.000000 
			CHANNELS 3 Xrotation Zrotation Yrotation
			JOINT rFoot
			{
				OFFSET 0.000000 -19.190928 -1.224953 
				CHANNELS 3 Xrotation Yrotation Zrotation
				End Site
				{
					OFFSET 0.000000 -2.449906 4.627600 
				}
			}
		}
	}
}
MOTION
Frames: 10
Frame Time: 0.016667
0.187648 47.490116 0.083434 2.862778 -2.550073 8.465106 0.000000 0.000000 0.000000 21.231232 6.717410 -5.485948 -8.457032 0.000000 0.000000 13.357608 1.300816 -25.026384 -2.812533 -0.096698 -0.019508 -85.345055 -14.631166 -18.882013 -15.696705 -14.635430 9.138489 61.602516 -27.075768 -12.674527 2.792995 0.077173 -0.019521 70.473206 14.248044 -16.422016 24.637661 13.808409 18.146914 -54.891811 28.690336 3.325993 -5.332551 25.613314 15.226823 24.882181 -5.957135 1.321438 -15.388507 4.469776 -10.870728 -14.413019 -26.714270 -12.249529 17.659451 13.198585 2.470843 -2.803863 9.164968 11.202956 
0.181469 47.487003 0.084747 2.862778 -2.550073 8.465106 0.000000 0.000000 0.000000 21.231232 6.717410 -5.485948 -8.457032 0.000000 0.000000 13.355346 1.389303 -25.027296 -2.812533 -0.096698 -0.019508 -85.432205 -14.637879 -18.887491 -15.692930 -14.647205 9.055042 61.433807 -27.083914 -12.585499 2.792995 0.077173 -0.019521 70.473206 14.248044 -16.422016 24.637661 13.808409 18.146914 -54.804634 28.698053 3.329870 -5.332551 25.613314 15.226823 24.882181 -5.957134 1.321438 -15.388507 4.469777 -10.870728 -14.392211 -26.602955 -12.347724 17.659079 13.198778 2.480600 -2.839554 9.194272 11.134179 
0.177326 47.484943 0.085629 2.921064 -2.617687 8.465536 0.000000 0.000000 0.000000 21.231232 6.717410 -5.485948 -8.457032 0.000000 0.000000 13.357478 1.390297 -24.939440 -2.812533 -0.096698 -0.019508 -85.430107 -14.726239 -18.884535 -15.692930 -14.647205 9.055042 61.253063 -27.106947 -12.500968 2.792995 0.077173 -0.019521 70.473206 14.248044 -16.422016 24.628613 13.732080 18.181227 -54.815044 28.775860 3.321639 -5.410347 25.603910 15.124465 24.923153 -5.967343 1.402191 -15.329204 4.430671 -10.891928 -14.314292 -26.652422 -12.279856 17.532270 13.208216 2.306834 -2.747120 9.077550 11.181394 
0.173185 47.482891 0.086511 2.969582 -2.685302 8.465978 0.000000 0.000000 0.000000 21.231232 6.717410 -5.485948 -8.457032 0.000000 0.000000 13.359612 1.391286 -24.851339 -2.812533 -0.096698 -0.019508 -85.427994 -14.814596 -18.884064 -15.692930 -14.647205 9.055042 61.074657 -27.121176 -12.420618 2.792995 0.077173 -0.019521 70.473206 14.248044 -16.422016 24.619669 13.655744 18.213274 -54.822327 28.861641 3.327688 -5.498657 25.592030 15.020432 24.933641 -5.977408 1.477003 -15.260078 4.401017 -10.908225 -14.235868 -26.690636 -12.212478 17.400217 13.240933 2.124623 -2.667009 8.983381 11.218146 
0.161406 47.484074 0.089517 2.969582 -2.685302 8.465978 0.000000 0.000000 0.000000 21.231232 6.717410 -5.485948 -8.457032 0.000000 0.000000 13.359612 1.391286 -24.851339 -2.812533 -0.096698 -0.019508 -85.514954 -14.822086 -18.879564 -15.703012 -14.648225 8.959582 61.002392 -27.119816 -12.337719 2.792995 0.077173 -0.019521 70.382576 14.241687 -16.419165 24.616055 13.658422 18.128494 -54.734692 28.874441 3.323455 -5.508278 25.681982 15.110091 24.998020 -5.956819 1.456221 -15.239207 4.406485 -10.927242 -14.422582 -26.704931 -12.287767 17.636213 13.217786 2.332620 -2.734895 9.096870 11.167303 
0.149626 47.485260 0.092525 2.969582 -2.685302 8.465978 0.000000 0.000000 0.000000 21.231232 6.717410 -5.485948 -8.457032 0.000000 0.000000 13.359612 1.391286 -24.851339 -2.812533 -0.096698 -0.019508 -85.602341 -14.819140 -18.884098 -15.700930 -14.650423 8.873649 60.916977 -27.128929 -12.246161 2.792995 0.077173 -0.019521 70.301590 14.238127 -16.416334 24.612511 13.661141 18.041401 -54.647392 28.882231 3.327599 -5.508264 25.754356 15.200524 25.076904 -5.966807 1.466280 -15.230681 4.362519 -10.917933 -14.606666 -26.690474 -12.324026 17.858934 13.211370 2.522180 -2.809264 9.186374 11.117022 
0.130222 47.483330 0.099024 3.026426 -2.762576 8.466898 0.000000 0.000000 0.000000 21.230644 6.716415 -5.574372 -8.457032 0.000000 0.000000 13.351981 1.392273 -24.763481 -2.812533 -0.096698 -0.019508 -85.590736 -14.904330 -18.883394 -15.690544 -14.565920 8.890235 60.649155 -27.060417 -12.078288 2.792995 0.077173 -0.019521 70.301590 14.238127 -16.416334 24.612511 13.661141 18.041401 -54.464096 28.899651 3.314361 -5.586209 25.916046 15.201330 25.076906 -5.966802 1.466280 -15.216070 4.439132 -10.975391 -14.499602 -26.554552 -12.253080 17.759151 13.336964 2.330390 -2.852082 9.307824 11.088640 
0.110824 47.481403 0.105527 3.074942 -2.830190 8.467374 0.000000 0.000000 0.000000 21.230064 6.715404 -5.663937 -8.457032 0.000000 0.000000 13.354117 1.393257 -24.675623 -2.812533 -0.096698 -0.019508 -85.588684 -14.992682 -18.880198 -15.689098 -14.475883 8.915513 60.379055 -26.999464 -11.902514 2.792995 0.077173 -0.019521 70.301590 14.238127 -16.416334 24.612511 13.661141 18.041401 -54.292286 28.912827 3.309558 -5.674319 26.076672 15.189747 25.076908 -5.966792 1.466282 -15.208765 4.518826 -11.064994 -14.392124 -26.407635 -12.182313 17.672867 13.474594 2.170431 -2.903342 9.399074 11.047651 
0.087674 47.480690 0.114686 3.074942 -2.830190 8.467374 0.000000 0.000000 0.000000 21.235392 6.627605 -5.691904 -8.457032 0.000000 0.000000 13.354925 1.483153 -24.578979 -2.812533 -0.096698 -0.019508 -85.673897 -15.087855 -18.881893 -15.593479 -14.486838 8.844961 60.114681 -27.018476 -11.821474 2.792995 0.077173 -0.019521 70.214317 14.143484 -16.310631 24.700176 13.653306 18.018629 -54.211761 29.006512 3.315889 -5.674049 26.158821 15.280828 25.164396 -5.966653 1.370540 -15.221681 4.361957 -11.050411 -14.423331 -26.393709 -12.464396 17.778532 13.346391 2.266857 -2.866110 9.490279 11.059064 
0.064524 47.479973 0.123844 3.074942 -2.830190 8.467374 0.000000 0.000000 0.000000 21.228939 6.549420 -5.730710 -8.457032 0.000000 0.000000 13.360348 1.564417 -24.472370 -2.812533 -0.096698 -0.019508 -85.759163 -15.183070 -18.885904 -15.506153 -14.509168 8.773889 59.847778 -27.045771 -11.736114 2.792995 0.077173 -0.019521 70.135765 14.055078 -16.193102 24.788790 13.640232 18.004448 -54.134232 29.092272 3.317400 -5.674036 26.241251 15.371401 25.278549 -5.983509 1.278317 -15.263841 4.188324 -11.021964 -14.422744 -26.362995 -12.751443 17.853535 13.207691 2.347406 -2.798578 9.565988 11.071094 
